Coordinates
version=1
nRows=13
nColumns=40
inDegrees=yes

Units are S.I. units (second, meters, Newtons, ...)
Angles are in degrees.

endheader
time	pelvis_tilt	pelvis_list	pelvis_rotation	pelvis_tx	pelvis_ty	pelvis_tz	hip_flexion_r	hip_adduction_r	hip_rotation_r	knee_angle_r	knee_angle_r_beta	ankle_angle_r	subtalar_angle_r	mtp_angle_r	hip_flexion_l	hip_adduction_l	hip_rotation_l	knee_angle_l	knee_angle_l_beta	ankle_angle_l	subtalar_angle_l	mtp_angle_l	lumbar_extension	lumbar_bending	lumbar_rotation	arm_flex_r	arm_add_r	arm_rot_r	elbow_flex_r	pro_sup_r	wrist_flex_r	wrist_dev_r	arm_flex_l	arm_add_l	arm_rot_l	elbow_flex_l	pro_sup_l	wrist_flex_l	wrist_dev_l
      2.92000000	    -14.49356861	      1.35197255	     11.62705849	     -2.63035484	      0.95540132	      0.38832809	     15.18180763	     -0.68965414	    -10.75880571	    102.62432226	    102.62432226	    -23.43575005	      0.00000000	      0.00000000	     38.25244518	      2.18114863	     -4.95031814	     41.80566791	     41.80566791	     11.70360846	      0.00000000	      0.00000000	    -28.42547068	     -5.82723981	     -6.46285263	     -8.04274978	    -15.00826994	    -12.38003137	     89.33014099	     35.92970485	      0.00000000	      0.00000000	     -4.78182222	    -29.12582850	     -5.14539068	     98.02129572	     77.94258212	      0.00000000	      0.00000000
      2.92500000	    -14.56379558	      1.32119851	     12.44658653	     -2.60349720	      0.95238928	      0.38643496	     17.73526111	     -1.51109947	    -11.30266465	    105.54492551	    105.54492551	    -22.32288783	      0.00000000	      0.00000000	     36.72675891	      2.57730637	     -4.23182620	     42.40604962	     42.40604962	     14.45109922	      0.00000000	      0.00000000	    -28.24528947	     -5.33097220	     -6.99902196	    -10.48554270	    -14.53041991	    -13.30154315	     87.60207056	     35.89468716	      0.00000000	      0.00000000	     -0.60102128	    -29.13602964	     -2.39446563	     98.58170716	     70.55560433	      0.00000000	      0.00000000
      2.93000000	    -14.61200311	      1.24833634	     13.28118520	     -2.57677738	      0.94957984	      0.38444139	     20.32891038	     -2.34102964	    -11.75574393	    108.20359116	    108.20359116	    -21.21134935	      0.00000000	      0.00000000	     35.14942610	      2.88114227	     -3.49902081	     42.91522020	     42.91522020	     17.01706682	      0.00000000	      0.00000000	    -28.07798027	     -4.75191494	     -7.65198594	    -12.87942477	    -14.15226292	    -14.11124807	     86.06642434	     37.05127400	      0.00000000	      0.00000000	      3.45334324	    -28.99963375	      0.19652413	     99.47336260	     59.75128946	      0.00000000	      0.00000000
      2.93500000	    -14.62737699	      1.13133407	     14.14270436	     -2.55012699	      0.94705935	      0.38239198	     22.93654934	     -3.17167512	    -12.14465007	    110.56665292	    110.56665292	    -20.09876030	      0.00000000	      0.00000000	     33.50044277	      3.08085061	     -2.72293426	     43.30118855	     43.30118855	     19.32990829	      0.00000000	      0.00000000	    -27.93477327	     -4.08445318	     -8.45465869	    -15.20419277	    -13.85721820	    -14.79994826	     84.71516490	     39.22909410	      0.00000000	      0.00000000	      7.35861600	    -28.74244448	      2.29550889	    100.40389371	     51.00090788	      0.00000000	      0.00000000
      2.94000000	    -14.59821943	      0.96523008	     15.04776422	     -2.52346739	      0.94489795	      0.38032468	     25.52516278	     -3.99646930	    -12.50659982	    112.60297472	    112.60297472	    -18.97896436	      0.00000000	      0.00000000	     31.76061218	      3.16580917	     -1.86530710	     43.53569932	     43.53569932	     21.34175276	      0.00000000	      0.00000000	    -27.81953532	     -3.32037515	     -9.40671160	    -17.45046535	    -13.61925321	    -15.44916535	     83.43677322	     43.58380507	      0.00000000	      0.00000000	     11.09492881	    -28.41624034	      3.89827671	    101.21907479	     46.06962085	      0.00000000	      0.00000000
      2.94500000	    -14.51596444	      0.73856830	     16.01618254	     -2.49672904	      0.94313188	      0.37826039	     28.06273441	     -4.80977152	    -12.88729584	    114.28888740	    114.28888740	    -17.84418101	      0.00000000	      0.00000000	     29.92317992	      3.12192342	     -0.88423551	     43.60272165	     43.60272165	     23.02378407	      0.00000000	      0.00000000	    -27.72485922	     -2.44451956	    -10.50272331	    -19.66314748	    -13.43815685	    -15.85156920	     82.70761675	     43.55274467	      0.00000000	      0.00000000	     14.64759364	    -28.06767611	      5.04452155	    101.81714779	     46.09901921	      0.00000000	      0.00000000
      2.95000000	    -14.37996299	      0.43495981	     17.06359737	     -2.46986711	      0.94175119	      0.37620214	     30.52801232	     -5.60881649	    -13.33070250	    115.61320484	    115.61320484	    -16.68680631	      0.00000000	      0.00000000	     28.00210490	      2.92952298	      0.25241161	     43.50292623	     43.50292623	     24.36055495	      0.00000000	      0.00000000	    -27.64120381	     -1.43957328	    -11.66897878	    -21.71952592	    -13.21193820	    -17.07716841	     80.95207000	     60.80580401	      0.00000000	      0.00000000	     18.02681555	    -27.73302187	      6.06416545	    102.87021789	     41.40515774	      0.00000000	      0.00000000
      2.95500000	    -14.20054282	      0.04252473	     18.18791354	     -2.44286081	      0.94070360	      0.37415022	     32.91764525	     -6.39604083	    -13.85897139	    116.57942266	    116.57942266	    -15.50237508	      0.00000000	      0.00000000	     26.02991879	      2.56777890	      1.54673756	     43.24949123	     43.24949123	     25.34620696	      0.00000000	      0.00000000	    -27.53130814	     -0.30022614	    -12.92589664	    -23.78120904	    -13.03456997	    -18.02983560	     80.01254003	     70.27556803	      0.00000000	      0.00000000	     21.21731054	    -27.42060966	      6.73345544	    103.79568732	     40.27142322	      0.00000000	      0.00000000
      2.96000000	    -14.00022379	     -0.43786395	     19.36162235	     -2.41570416	      0.93990881	      0.37211483	     35.24888024	     -7.17859879	    -14.45863381	    117.20391389	    117.20391389	    -14.29486838	      0.00000000	      0.00000000	     24.04964785	      2.02411049	      2.96112058	     42.85946892	     42.85946892	     25.97829376	      0.00000000	      0.00000000	    -27.35891263	      0.95226124	    -14.21886454	    -25.85040066	    -12.89356529	    -18.82981984	     79.46016025	     76.55397144	      0.00000000	      0.00000000	     24.21796008	    -27.14080687	      7.17363900	    104.83076152	     39.24001355	      0.00000000	      0.00000000
      2.96500000	    -13.81204479	     -0.99031439	     20.53315273	     -2.38839371	      0.93927750	      0.37012105	     37.55693597	     -7.96380032	    -15.07975942	    117.51122775	    117.51122775	    -13.07732320	      0.00000000	      0.00000000	     22.10470775	      1.30249959	      4.42327564	     42.34580701	     42.34580701	     26.25443243	      0.00000000	      0.00000000	    -27.08239781	      2.26710951	    -15.50617299	    -27.97532477	    -12.82038705	    -19.19672902	     79.35486991	     76.55024580	      0.00000000	      0.00000000	     27.03230018	    -26.89071369	      7.38829887	    105.88188968	     39.30984735	      0.00000000	      0.00000000
      2.97000000	    -13.67606616	     -1.58966445	     21.63972626	     -2.36092608	      0.93872327	      0.36819603	     39.88828170	     -8.75533596	    -15.65056143	    117.52865855	    117.52865855	    -11.86956181	      0.00000000	      0.00000000	     20.23356356	      0.42686349	      5.84648885	     41.71730654	     41.71730654	     26.16865738	      0.00000000	      0.00000000	    -26.68449260	      3.59087692	    -16.69380263	    -30.05946950	    -12.69837727	    -20.10177074	     79.12429503	     82.48675860	      0.00000000	      0.00000000	     29.67787934	    -26.64962336	      7.46461217	    107.08374164	     38.69844420	      0.00000000	      0.00000000
      2.97500000	    -13.63276152	     -2.20783572	     22.61706097	     -2.33329234	      0.93817329	      0.36636543	     42.29133858	     -9.54762361	    -16.09241312	    117.28144667	    117.28144667	    -10.69584265	      0.00000000	      0.00000000	     18.46317322	     -0.56345085	      7.14662583	     40.97824513	     40.97824513	     25.71370439	      0.00000000	      0.00000000	    -26.12559794	      4.85006777	    -17.77107086	    -32.20472858	    -12.62317131	    -20.71164250	     79.20189971	     83.83948201	      0.00000000	      0.00000000	     32.13898943	    -26.41846243	      7.38926504	    108.36891090	     37.89771731	      0.00000000	      0.00000000
      2.98000000	    -13.71652493	     -2.82161996	     23.40926374	     -2.30547844	      0.93757177	      0.36464860	     44.80738344	    -10.32189015	    -16.33731788	    116.78886920	    116.78886920	     -9.58007896	      0.00000000	      0.00000000	     16.80817484	     -1.62341531	      8.25453713	     40.13244388	     40.13244388	     24.88137788	      0.00000000	      0.00000000	    -25.39662292	      5.99517850	    -18.68523833	    -34.37604864	    -12.54810066	    -21.36639997	     79.39444420	     84.74811300	      0.00000000	      0.00000000	     34.42551994	    -26.17753761	      7.17389687	    109.65939332	     37.85762923	      0.00000000	      0.00000000
